<svg width="68" height="22" viewBox="0 0 68 22" fill="none" xmlns="http://www.w3.org/2000/svg">
<path d="M26.867 17V15.419C27.5923 14.8183 28.295 14.2233 28.975 13.634C29.6663 13.0447 30.2783 12.461 30.811 11.883C31.355 11.305 31.7857 10.744 32.103 10.2C32.4317 9.64467 32.596 9.10633 32.596 8.585C32.596 8.09767 32.46 7.667 32.188 7.293C31.9273 6.919 31.491 6.732 30.879 6.732C30.2557 6.732 29.7853 6.936 29.468 7.344C29.1507 7.752 28.992 8.245 28.992 8.823H26.884C26.9067 7.95033 27.0993 7.225 27.462 6.647C27.8247 6.05767 28.3063 5.62133 28.907 5.338C29.5077 5.04333 30.182 4.896 30.93 4.896C32.1427 4.896 33.0833 5.23033 33.752 5.899C34.432 6.55633 34.772 7.412 34.772 8.466C34.772 9.12333 34.619 9.76367 34.313 10.387C34.0183 11.0103 33.6273 11.611 33.14 12.189C32.6527 12.767 32.1257 13.311 31.559 13.821C30.9923 14.3197 30.4427 14.7843 29.91 15.215H35.061V17H26.867ZM41.2367 17.204C40.1374 17.204 39.1967 16.949 38.4147 16.439C37.6327 15.9177 37.0264 15.198 36.5957 14.28C36.1764 13.3507 35.9667 12.274 35.9667 11.05C35.9667 9.83733 36.1764 8.76633 36.5957 7.837C37.0264 6.90767 37.6327 6.188 38.4147 5.678C39.1967 5.15667 40.1374 4.896 41.2367 4.896C42.3361 4.896 43.2767 5.15667 44.0587 5.678C44.8407 6.188 45.4414 6.90767 45.8607 7.837C46.2914 8.76633 46.5067 9.83733 46.5067 11.05C46.5067 12.274 46.2914 13.3507 45.8607 14.28C45.4414 15.198 44.8407 15.9177 44.0587 16.439C43.2767 16.949 42.3361 17.204 41.2367 17.204ZM41.2367 15.249C42.1321 15.249 42.8631 14.875 43.4297 14.127C43.9964 13.379 44.2797 12.3533 44.2797 11.05C44.2797 9.74667 43.9964 8.721 43.4297 7.973C42.8631 7.225 42.1321 6.851 41.2367 6.851C40.3301 6.851 39.5934 7.225 39.0267 7.973C38.4714 8.721 38.1937 9.74667 38.1937 11.05C38.1937 12.3533 38.4714 13.379 39.0267 14.127C39.5934 14.875 40.3301 15.249 41.2367 15.249ZM52.8789 17.204C51.7796 17.204 50.8389 16.949 50.0569 16.439C49.2749 15.9177 48.6686 15.198 48.2379 14.28C47.8186 13.3507 47.6089 12.274 47.6089 11.05C47.6089 9.83733 47.8186 8.76633 48.2379 7.837C48.6686 6.90767 49.2749 6.188 50.0569 5.678C50.8389 5.15667 51.7796 4.896 52.8789 4.896C53.9782 4.896 54.9189 5.15667 55.7009 5.678C56.4829 6.188 57.0836 6.90767 57.5029 7.837C57.9336 8.76633 58.1489 9.83733 58.1489 11.05C58.1489 12.274 57.9336 13.3507 57.5029 14.28C57.0836 15.198 56.4829 15.9177 55.7009 16.439C54.9189 16.949 53.9782 17.204 52.8789 17.204ZM52.8789 15.249C53.7742 15.249 54.5052 14.875 55.0719 14.127C55.6386 13.379 55.9219 12.3533 55.9219 11.05C55.9219 9.74667 55.6386 8.721 55.0719 7.973C54.5052 7.225 53.7742 6.851 52.8789 6.851C51.9722 6.851 51.2356 7.225 50.6689 7.973C50.1136 8.721 49.8359 9.74667 49.8359 11.05C49.8359 12.3533 50.1136 13.379 50.6689 14.127C51.2356 14.875 51.9722 15.249 52.8789 15.249ZM60.2058 17L64.6938 6.953H58.8288V5.1H66.9378V6.647L62.4668 17H60.2058Z" fill="black"/>
<path fill-rule="evenodd" clip-rule="evenodd" d="M12.4999 5H14.3333C15.0696 5 15.6666 5.59695 15.6666 6.33333V17.6667C15.6666 18.403 15.0696 19 14.3333 19H1.66659C0.930206 19 0.333252 18.403 0.333252 17.6667V6.33333C0.333252 5.59695 0.930206 5 1.66659 5H2.66659C2.85068 5 2.99992 5.14924 2.99992 5.33333V6.83333C2.99992 7.10948 3.22378 7.33333 3.49992 7.33333C3.77606 7.33333 3.99992 7.10948 3.99992 6.83333V3.66667C3.99992 3.29848 4.2984 3 4.66659 3C5.03478 3 5.33325 3.29848 5.33325 3.66667V4.834C5.33362 4.92579 5.40813 5 5.49992 5H9.66658C9.85068 5 9.99992 5.14924 9.99992 5.33333V6.83333C9.99992 7.10948 10.2238 7.33333 10.4999 7.33333C10.7761 7.33333 10.9999 7.10948 10.9999 6.83333V3.66667C10.9999 3.29848 11.2984 3 11.6666 3C12.0348 3 12.3333 3.29848 12.3333 3.66667V4.83333C12.3333 4.92538 12.4079 5 12.4999 5ZM1.99992 17.6667H13.9999C14.184 17.6667 14.3333 17.5174 14.3333 17.3333V9.33333C14.3333 9.14924 14.184 9 13.9999 9H1.99992C1.81582 9 1.66659 9.14924 1.66659 9.33333V17.3333C1.66659 17.5174 1.81582 17.6667 1.99992 17.6667Z" fill="black"/>
</svg>
